<svg width="40" height="40" viewBox="0 0 24 24" fill="none" xmlns="http://www.w3.org/2000/svg">
<rect x="0.5" y="0.5" width="23" height="23" rx="11.5" fill="#222222"/>
<rect x="0.5" y="0.5" width="23" height="23" rx="11.5" stroke="#222222"/>
<path fillRule="evenodd" clipRule="evenodd" d="M5.64592 8.64592C5.69236 8.59935 5.74754 8.56241 5.80828 8.5372C5.86903 8.512 5.93415 8.49902 5.99992 8.49902C6.06568 8.49902 6.13081 8.512 6.19155 8.5372C6.2523 8.56241 6.30747 8.59935 6.35392 8.64592L11.9999 14.2929L17.6459 8.64592C17.6924 8.59943 17.7476 8.56255 17.8083 8.53739C17.8691 8.51223 17.9342 8.49929 17.9999 8.49929C18.0657 8.49929 18.1308 8.51223 18.1915 8.53739C18.2522 8.56255 18.3074 8.59943 18.3539 8.64592C18.4004 8.6924 18.4373 8.74759 18.4624 8.80833C18.4876 8.86907 18.5005 8.93417 18.5005 8.99992C18.5005 9.06566 18.4876 9.13076 18.4624 9.1915C18.4373 9.25224 18.4004 9.30743 18.3539 9.35392L12.3539 15.3539C12.3075 15.4005 12.2523 15.4374 12.1915 15.4626C12.1308 15.4878 12.0657 15.5008 11.9999 15.5008C11.9341 15.5008 11.869 15.4878 11.8083 15.4626C11.7475 15.4374 11.6924 15.4005 11.6459 15.3539L5.64592 9.35392C5.59935 9.30747 5.56241 9.2523 5.5372 9.19155C5.512 9.13081 5.49902 9.06568 5.49902 8.99992C5.49902 8.93415 5.512 8.86903 5.5372 8.80828C5.56241 8.74754 5.59935 8.69236 5.64592 8.64592Z" fill="white"/>
</svg>
