<svg width="40" height="40" viewBox="0 0 40 40" fill="none" xmlns="http://www.w3.org/2000/svg">
<rect width="40" height="40" rx="20" fill="#222222"/>
<path fillRule="evenodd" clipRule="evenodd" d="M31.1199 25.7082C31.0386 25.8013 30.9421 25.8752 30.8357 25.9256C30.7294 25.976 30.6155 26.002 30.5004 26.002C30.3853 26.002 30.2713 25.976 30.165 25.9256C30.0587 25.8752 29.9622 25.8013 29.8809 25.7082L20.0004 14.4142L10.1199 25.7082C10.0385 25.8011 9.94195 25.8749 9.83566 25.9252C9.72937 25.9755 9.61544 26.0014 9.50039 26.0014C9.38534 26.0014 9.27141 25.9755 9.16512 25.9252C9.05882 25.8749 8.96224 25.8011 8.88089 25.7082C8.79954 25.6152 8.735 25.5048 8.69097 25.3833C8.64694 25.2619 8.62428 25.1317 8.62428 25.0002C8.62428 24.8687 8.64694 24.7385 8.69097 24.617C8.735 24.4955 8.79954 24.3851 8.88089 24.2922L19.3809 12.2922C19.4622 12.199 19.5587 12.1252 19.665 12.0747C19.7713 12.0243 19.8853 11.9984 20.0004 11.9984C20.1155 11.9984 20.2294 12.0243 20.3357 12.0747C20.4421 12.1252 20.5386 12.199 20.6199 12.2922L31.1199 24.2922C31.2014 24.3851 31.266 24.4954 31.3101 24.6169C31.3542 24.7384 31.377 24.8686 31.377 25.0002C31.377 25.1317 31.3542 25.2619 31.3101 25.3834C31.266 25.5049 31.2014 25.6153 31.1199 25.7082Z" fill="white"/>
</svg>
